<?xml version="1.0" encoding="UTF-8"?>
<svg width="500px" height="210px" viewBox="0 0 500 210" version="1.1" xmlns="http://www.w3.org/2000/svg" xmlns:xlink="http://www.w3.org/1999/xlink">
    <!-- Generator: Sketch 55.2 (78181) - https://sketchapp.com -->
    <title>Fish/Line/Bass/Rev</title>
    <desc>Created with Sketch.</desc>
    <g id="Fish/Line/Bass/Rev" stroke="none" stroke-width="1" fill="none" fill-rule="evenodd" stroke-linecap="round">
        <path d="M274.72875,148.624 L287.99975,163 M265.46375,150.2 L275.93375,162.764 M374.99975,108.574 C363.40175,110.127 335.09175,107.02 315.86775,105.917 C296.64375,104.814 279.06575,92.706 236.06575,82.235 C207.39975,75.255 181.71075,75.255 158.99975,82.235 M186.99975,159 C195.59675,166.7 207.52475,174.309 219.59475,180.609 L186.99975,159 Z M373.38475,121.462 L431.99975,141 L373.38475,121.462 Z M374.67075,113.969 L419.949217,118.108038 L374.67075,113.969 Z M427.99975,96 L374.99975,106 L427.99975,96 Z M373.58175,99.858 L437.99975,77 L373.58175,99.858 Z M292.99975,67 L316.99975,50 L292.99975,67 Z M270.99975,60 L307.99975,34 L270.99975,60 Z M284.83775,146.509 C302.66975,161.105 315.78975,168.656 321.87275,167.952 C327.95475,167.247 329.55675,162.062 326.67875,152.395 C326.87775,148.206 327.47375,145.197 328.46475,143.369 C329.95175,140.627 328.00375,135.982 326.67875,134.183 C325.35375,132.382 321.22075,132 319.14975,132 L284.83775,146.509 Z M248.99975,40 L244.59275,53.898 M234.99975,52 L241.99975,30 M225.27375,52 L234.09575,24 M203.99975,52 L213.99975,8 M192.72675,53.121 L201.99975,15 M223.99975,14 L214.75575,52 M182.96175,54.173 L187.99975,31 M253.38075,55.592 L255.76275,52.395 C259.53875,49.702 263.82875,46.827 268.63375,43.77 C278.62075,37.415 291.57275,29.55 296.53475,27.553 C305.07675,24.113 311.66275,37.53 316.05675,45.649 C320.45175,53.769 319.98575,73.041 319.98575,78 L253.38075,55.592 Z M73.32675,115.464 L61.88975,115.464 C58.03675,116.909 58.03675,119.036 61.88975,121.845 C67.66875,126.06 105.57475,136.622 112.27075,139.179 C118.96575,141.736 134.13275,142.911 141.04275,142.911 C147.95275,142.911 196.15675,153.202 228.69875,153.202 C261.24075,153.202 298.71475,144.56 306.57475,139.179 C314.43275,133.797 321.59375,128.121 346.50075,128.121 C371.40775,128.121 384.31175,141.088 395.12475,146.795 C402.33375,150.6 417.29575,154.668 440.01275,159 C437.30175,151.676 435.23675,146.313 433.81475,142.911 C431.68175,137.808 417.09475,121.93 420.41475,112.979 C423.73375,104.029 443.74275,69.933 441.87675,67.173 C440.01175,64.414 438.38675,67.173 424.80375,67.173 C411.22175,67.173 375.98875,87.558 367.33675,92.067 C358.68675,96.577 339.39575,87.558 332.85175,84.264 C326.30675,80.969 265.84675,52 223.96575,52 C182.08375,52 169.81475,56.237 141.04275,62.923 C121.86075,67.38 96.37675,80.753 64.59175,103.043 L73.32675,115.464 Z M370.99975,132 C373.66675,121.105 374.99975,113.676 374.99975,109.712 C374.99975,105.749 373.66675,99.179 370.99975,90 M172.99975,148 C179.64175,162.785 184.12075,170.953 186.43675,172.503 C189.91175,174.83 214.11575,192 217.93575,192 C221.75475,192 220.04075,156.132 206.82975,152.047 L172.99975,148 Z M164.59375,115.385 C169.72775,119.087 175.11775,122.683 180.76375,126.171 C189.23175,131.405 203.15375,128.143 207.66775,126.171 C212.18375,124.2 224.57175,105.297 227.55175,97.926 C230.53075,90.554 218.05775,90 207.66775,90 C200.74275,90 185.51975,93.523 161.99975,100.569 M127.63475,142.118 C146.30175,138.379 154.99975,129.471 154.99975,117.628 C154.99975,99.863 154.38075,90 148.47775,90 M92.99975,97.5 C92.99975,94.462 95.46175,92 98.49975,92 C101.53775,92 103.99975,94.462 103.99975,97.5 C103.99975,100.538 101.53775,103 98.49975,103 C95.46175,103 92.99975,100.538 92.99975,97.5 Z" id="Stroke-1" stroke="#FFFFFF" stroke-width="5"></path>
    </g>
</svg>