<?xml version="1.0" encoding="UTF-8"?>
<svg width="500px" height="210px" viewBox="0 0 500 210" version="1.1" xmlns="http://www.w3.org/2000/svg" xmlns:xlink="http://www.w3.org/1999/xlink">
    <!-- Generator: Sketch 55.2 (78181) - https://sketchapp.com -->
    <title>Fish/Line/Cod/Blk</title>
    <desc>Created with Sketch.</desc>
    <g id="Fish/Line/Cod/Blk" stroke="none" stroke-width="1" fill="none" fill-rule="evenodd" stroke-linecap="round">
        <path d="M38.5166445,79.911 C35.9816445,79.911 33.9276445,81.966 33.9276445,84.5 C33.9276445,87.035 35.9816445,89.09 38.5166445,89.09 C41.0506445,89.09 43.1056445,87.035 43.1056445,84.5 C43.1056445,81.966 41.0506445,79.911 38.5166445,79.911 Z M343.971645,58.274 L379.049645,36.572 L343.971645,58.274 Z M317.319645,48.251 L362.713645,22.852 L317.319645,48.251 Z M429.396645,122.654 C438.706645,115.612 443.872645,104.851 444.314645,91.01 C444.755645,77.168 437.146645,66.632 422.326645,59.836 M435.393645,68.515 L476.337645,39.229 L435.393645,68.515 Z M438.051645,113.261 L476.572645,133.116 L438.051645,113.261 Z M443.291645,99.943 L492.758645,112.595 L443.291645,99.943 Z M444.321645,89.002 L497.201645,82.08 L444.321645,89.002 Z M441.684645,77.332 L493.023645,52.375 L441.684645,77.332 Z M345.053645,133.903 L370.916645,143.322 M326.842645,140.378 L359.484645,155.743 M136.156645,150.483 L151.810645,179.678 M90.2306445,132.196 C102.454645,127.2 111.049645,122.898 113.953645,120.336 C118.309645,116.493 135.204645,95.032 136.156645,92.837 M369.259645,66.03 C371.699645,66.03 378.986645,59.755 381.606645,56.705 C384.225645,53.655 384.466645,50.133 382.797645,42.919 C381.127645,35.705 365.481645,23.912 359.189645,20.837 C352.897645,17.763 340.395645,18.608 330.082645,19.4 C323.207645,19.928 309.673645,27.496 289.617645,42.084 M279.972645,141.97 C303.010645,147.931 318.801645,152.427 326.842645,155.136 C338.903645,159.199 357.718645,156.543 361.857645,155.136 C365.995645,153.728 373.460645,145.035 370.811645,135.495 C368.162645,125.956 352.603645,116.113 350.686645,116.113 M284.516645,34.234 L274.544645,39.762 M273.825645,30.539 L262.825645,37.5 M249.202645,36.144 L261.516645,26 M249.361645,21 L231.508645,34.715 M236.516645,16.447 L216.342645,33.695 M221.516645,13.559 L202.469645,32.868 M206.516645,13 L189.189645,32.149 M192.325645,13 L177.863645,31.59 M167.905645,31.14 L176.445645,18.909 M122.467645,140.609 C131.332645,170.731 138.785645,188.952 144.825645,195.961 C147.074645,198.572 144.269645,193.357 144.825645,189.498 C145.404645,185.474 149.345645,182.679 151.810645,179.678 C158.351645,171.716 158.351645,166.5 158.351645,166.5 C158.571645,159.826 158.351645,152.462 158.351645,148.958 L122.467645,140.609 Z M138.403645,124.837 C147.544645,136.015 175.328645,138.786 181.273645,138.786 C190.362645,138.786 202.817645,121.231 205.158645,111.848 C207.498645,102.463 205.462645,87.531 197.450645,87.531 C189.438645,87.531 150.489645,97.413 149.213645,97.413 M57.1218755,108.984753 C45.5443436,105.061842 22.0416445,96.477 22.0416445,96.477 C22.0416445,96.477 7.26664454,91.194 7.26664454,87.531 C7.26664454,83.868 20.7296445,74.096 42.0166445,67.678 C63.3036445,61.26 71.5906445,54.757 94.5636445,43.739 C117.536645,32.722 140.892645,30.539 150.313645,30.539 C159.733645,30.539 250.228645,34.618 268.589645,38.598 C286.950645,42.579 302.787645,41.974 329.291645,52.53 C355.795645,63.087 372.561645,69.638 397.144645,67.678 C421.727645,65.718 438.285645,47.315 454.727645,41.974 C471.168645,36.633 498.577645,32.506 497.146645,80.09 C496.180645,112.235 488.711645,124.61 484.787645,127.681 C472.694645,137.142 464.923645,138.078 452.882645,132.354 C440.841645,126.63 411.046645,115.683 404.622645,113.5 C398.200645,111.317 368.286645,111.317 358.900645,113.5 C349.514645,115.683 278.131645,143.424 267.016645,146.275 C255.901645,149.126 228.008645,157.061 196.016645,154.704 C164.024645,152.346 116.925645,138.978 100.225645,134.958 C83.5266445,130.937 10.8876445,106.885 7.26664454,105 C3.64664454,103.115 2.82564454,100 3.02864454,95.905 C3.16364454,93.176 14.1596445,94.965 35.0166445,101.707" id="Stroke-1" stroke="#000000" stroke-width="5"></path>
    </g>
</svg>