<?xml version="1.0" encoding="UTF-8"?>
<svg width="500px" height="210px" viewBox="0 0 500 210" version="1.1" xmlns="http://www.w3.org/2000/svg" xmlns:xlink="http://www.w3.org/1999/xlink">
    <!-- Generator: Sketch 55.2 (78181) - https://sketchapp.com -->
    <title>Fish/Line/Perch/Rev</title>
    <desc>Created with Sketch.</desc>
    <g id="Fish/Line/Perch/Rev" stroke="none" stroke-width="1" fill="none" fill-rule="evenodd" stroke-linecap="round" stroke-linejoin="round">
        <path d="M219.357129,142.371435 L176.000094,122.141688 L219.357129,142.371435 Z M181.000098,110.661693 L229.539137,116.953729 L181.000098,110.661693 Z M176.880095,155.071304 L200.613114,183.493775 L176.880095,155.071304 Z M165.248085,153.304383 L187.035103,203.239365 L165.248085,153.304383 Z M118.000047,134.120813 C128.809055,131.014227 136.723062,128.128256 141.744066,125.464897 C149.275072,121.470857 169.000088,101.30999 169.000088,97.5215916 C169.000088,94.9959927 161.211082,87.5629457 145.633069,75.2244471 M313.272206,63.3411551 L343.607231,49.708911 L313.272206,63.3411551 Z M384.853264,120.748117 L428.7063,142.457286 L384.853264,120.748117 Z M388.000267,109.940949 L439.471309,109.393903 L388.000267,109.940949 Z M385.647265,96.5133486 L433.307304,76.6759177 L385.647265,96.5133486 Z M375.653257,132.353892 C376.961258,130.745695 388.000267,120.28692 388.000267,111.107916 C388.000267,104.987581 385.474265,94.540786 381.295261,81.3966912 M331.920221,80.472302 C338.174226,78.7552941 341.466229,74.7542664 342.75623,68.983323 C344.692231,60.327407 344.689231,46.3258065 340.420228,38.1031355 C336.151224,29.8804645 320.961212,22.1149967 313.535206,20.7453834 C306.1102,19.3757702 285.529183,21.3343571 276.377176,26.3076905 C270.275171,29.6229133 266.186167,32.4749433 263.370165,34.7819231 M257.00016,156.537749 C270.676171,166.909674 281.52118,173.839598 289.536186,177.331513 C301.557196,182.568387 307.778201,184.119684 311.953205,182.314829 C316.128208,180.508976 323.414214,172.62172 330.16222,158.823765 C336.910225,145.027806 336.442225,136.573539 335.378224,134.117818 C334.314223,131.662098 323.707214,127.542277 323.707214,126.413244 M167.000086,127.796833 C184.401101,152.644533 195.37311,165.066886 199.912113,165.066886 C206.722119,165.066886 216.742127,148.852142 219.129129,142.929463 C221.517131,137.005786 232.00014,113.421883 232.00014,107.286575 C232.00014,101.152265 229.181137,94.2622713 226.000135,91.9832428 C222.818132,89.7052126 215.939126,87.330351 208.45912,88.5182809 C200.978114,89.7052126 184.804101,95.744688 180.655098,98.5577859 M155.390077,151.305866 C163.806084,183.957966 170.556089,202.469707 174.420093,203.274305 C180.216097,204.481201 188.783104,204.831591 193.979108,199.02471 C199.175113,193.217829 201.000114,183.534703 201.000114,179.347001 L201.000114,165.468186 L155.390077,151.305866 Z M100.500028,96.1879157 C103.537035,96.1879157 106.000028,93.7292003 106.000028,90.6974834 C106.000028,87.6647683 103.537035,85.2070512 100.500028,85.2070512 C97.4620297,85.2070512 95.0000277,87.6647683 95.0000277,90.6974834 C95.0000277,93.7292003 97.4620297,96.1879157 100.500028,96.1879157 Z M81.0560164,108.246901 C75.736012,106.958147 71.1750083,97.5685098 66.2910043,94.1255097 C61.4070003,90.6825095 61,97.5685098 61,101.878998 C61,106.190485 86.1090205,120.143171 94.7110275,123.027145 C103.312035,125.910121 138.308063,144.981886 151.578074,150.12692 C156.900078,152.190325 168.826088,154.116967 189.118105,156.690483 M67.0000049,94.6685633 C66.3250043,88.6730113 68.5450062,89.4875918 70.1180074,88.8856408 C71.6920087,88.2826915 83.3550182,81.0053731 93.6060266,78.0595066 C103.856035,75.1136401 105.104036,74.8930246 114.992044,66.2570738 C124.880052,57.621123 142.426066,34.4185563 163.473084,31.0055039 C184.519101,27.5924516 215.398126,24.320154 229.308137,26.7299546 C243.218149,29.1397552 285.287183,39.0554759 296.888192,48.3013638 C308.489202,57.5452552 329.141219,80.3664864 336.342225,83.2824051 C343.54423,86.1983237 365.372248,85.5095241 375.631257,83.2824051 C385.890265,81.0562844 403.72128,68.3564154 410.141285,66.2570738 C416.56129,64.1577322 427.779299,62.3928077 436.584306,83.2824051 C442.454311,97.2081378 440.75831,115.161851 431.497302,137.142547 C423.550296,152.522745 418.572292,160.213344 416.56129,160.213344 C413.545288,160.213344 382.253262,132.632407 370.550253,130.527075 C358.848243,128.420746 332.375221,126.05986 328.048218,126.05986 C323.722214,126.05986 311.865205,128.084332 311.865205,130.527075 C311.865205,132.96882 311.865205,144.56661 303.995198,147.279882 C296.124192,149.994152 273.249173,154.865663 260.874163,156.187359 C248.498153,157.509056 214.883126,157.4841 210.188122,157.4841 M314.829207,180.481025 L282.08918,152.673483 L314.829207,180.481025 Z M305.298199,146.714866 L327.828218,163.332907 L305.298199,146.714866 Z M284.587182,41.8446155 L314.965207,21.0628303 L284.587182,41.8446155 Z M299.223194,50.2359925 L335.873224,32.4859241 L299.223194,50.2359925 Z M269.548019,11.8881255 L250.626306,30.4689979 L269.548019,11.8881255 Z M255.350496,6.93856874 L237.696807,27.4933653 L255.350496,6.93856874 Z M241.638013,6 L225.689122,26.2756916 L241.638013,6 Z M227.796135,6.09907265 L214.666126,25.6185913 L227.796135,6.09907265 Z M202.437113,26.0600183 L210.103124,13.2853535 L202.437113,26.0600183 Z" id="Stroke-1" stroke="#FFFFFF" stroke-width="5"></path>
    </g>
</svg>