<?xml version="1.0" encoding="UTF-8"?>
<svg width="500px" height="210px" viewBox="0 0 500 210" version="1.1" xmlns="http://www.w3.org/2000/svg" xmlns:xlink="http://www.w3.org/1999/xlink">
    <!-- Generator: Sketch 55.2 (78181) - https://sketchapp.com -->
    <title>Fish/Line/Trout/Blk</title>
    <desc>Created with Sketch.</desc>
    <g id="Fish/Line/Trout/Blk" stroke="none" stroke-width="1" fill="none" fill-rule="evenodd" stroke-linecap="round">
        <path d="M369.147,89.9339865 C371.125,88.2419865 375.001,84.1229865 375.001,79.6439865 C375.001,75.1629865 371.481,73.0249865 362.233,72.0799865 C356.068,71.4509865 344.867,74.2529865 328.209,81.0009865 M457.001,144.998987 L413.679,129.246987 M421.958,117.991987 L454.001,123.998987 M451.001,105.998987 L421.629,108.025987 M413.848,95.3519865 L451.001,83.9989865 M400.771,135.137987 C438.779,124.015987 418.616,91.5999865 399.431,86.6069865 M365.692895,147.009094 L349.085,140.628987 M363.17066,160.118584 L335.218,148.622987 M264.833,72.3749865 L280.001,60.9989865 M268.001,50.9989865 L245.27,70.1179865 M224.893,69.2859865 L259.001,41.9989865 M250.585,160.832987 L276.001,170.998987 M137,137.498987 L162.552,137.513987 M135.893,149.377987 C142.199,151.125987 146.848,151.998987 149.838,151.998987 C154.323,151.998987 194.935,134.871987 184.201,129.248987 C177.044,125.500987 159.311,124.995987 131,127.732987 M61.5,112.998987 C63.433,112.998987 65,111.432987 65,109.498987 C65,107.566987 63.433,105.998987 61.5,105.998987 C59.567,105.998987 58,107.566987 58,109.498987 C58,111.432987 59.567,112.998987 61.5,112.998987 Z M73.667,141.155987 C90.281,142.232987 98.371,140.154987 107.27,135.886987 C120.618,129.485987 122.875,123.698987 121.746,116.512987 C120.994,111.722987 116.168,105.884987 107.27,98.9989865 M294.005,76.1299865 C287.785,58.1719865 277.84,46.3419865 260.023,31.0389865 C259.046,30.2009865 242.364,42.8719865 209.992,69.0859865 M322.239,152.499987 C329.101,157.110987 336.545,162.030987 341.047,164.779987 C347.801,168.903987 365.052,174.082987 366.566,172.800987 C368.079,171.518987 370.537,161.059987 372.18,153.740987 C373.824,146.421987 376.001,139.295987 376.001,137.560987 C376.001,135.825987 361.221,130.610987 356.938,133.726987 M238.546,161.862987 C258.715,172.898987 271.785,178.998987 274.848,178.998987 C279.442,178.998987 284.001,176.759987 284.001,172.782987 C284.001,170.131987 283.028,164.651987 281.407,157.446987 M34.16,106.760987 C34.16,101.303987 60.251,88.3779865 113.756,77.1889865 C167.262,65.9989865 230.891,69.6519865 239.032,69.6519865 C247.171,69.6519865 316.945,79.2069865 321.253,79.7909865 C325.668,80.3899865 339.945,83.1529865 368.63,89.8729865 C379.376,91.1369865 387.029,91.1369865 391.587,89.8729865 C398.426,87.9789865 439.416,65.9989865 454.301,65.9989865 L467.173,65.9989865 C468.517,65.9989865 468.517,68.6249865 467.173,73.8749865 C463.819,88.8199865 462.141,99.7819865 462.141,106.760987 C462.141,117.229987 469.001,153.098987 469.001,157.523987 C464.524,160.125987 451.721,158.322987 448.373,157.523987 C436.563,154.704987 404.924,137.344987 400.771,135.137987 C398.397,133.875987 390.198,129.793987 380.002,129.793987 C369.807,129.793987 359.373,131.602987 357.323,133.370987 C355.273,135.137987 342.27,150.156987 318.352,153.098987 C294.433,156.039987 243.364,161.860987 239.032,161.860987 C234.699,161.860987 166.159,162.728987 142.07,160.125987 C117.981,157.523987 111.557,153.619987 102.289,150.668987 C93.228,147.785987 56.052,136.241987 44.554,128.410987 C33.056,120.578987 30,117.576987 30,113.998987 C30,111.615987 35.257,113.403987 45.77,119.364987 L55.245,121.810987 C51.994,116.625987 48.43,113.246987 44.554,111.671987 C38.74,109.310987 34.16,108.842987 34.16,106.760987 Z" id="Stroke-1" stroke="#000000" stroke-width="5"></path>
    </g>
</svg>