<svg id="Layer_1" data-name="Layer 1" xmlns="http://www.w3.org/2000/svg" viewBox="0 0 595.28 595.28"><defs><style>.cls-1{fill:#fff;}</style></defs><title>Artboard 1 copy</title><path class="cls-1" d="M557.18,218.81l4.3-5.89,2.41-3.33c-5.79-8.88-3.93-2.17-6.26-4l-7.59.94c-3.92-6.75-6.29-10.81-7.59-13.06l10.35-7c1.63-2.21,4.53-.57,5.1-5.94l-5-4.79c-2.81-2.71-5.57-5.38-8.47-7.82.45-4.13.69-6.35.48-4.7l-.18.13-.4.26-2.88,1.87c-55-45.05-111.41-59.54-148.23-66.6-38-6.14-59-4.66-58.89-5-47.23,3.44-73.46,11-88.06,16,23.4-4.77,66.87-11.77,67-9.88-9.35.69-18.74,1.45-28,3a304.59,304.59,0,0,0-47.15,13c8.68-2.63,17.48-4.86,26.32-6.69-20.41,4.86-74.28,27.19-73.81,28.37,17.88-8.36,109.27-47.42,197.66-29.64C458,118.26,511.72,156.26,531,172.28l-.95.62C504.56,154.68,433,110.91,351,111c-91.68-4.32-169.24,45.06-172.46,47,11.91-6.38,103.52-56.06,197.92-41.11,67.61,6.87,121.19,41.46,145.9,61.09l-.49.32c-28.57-21.6-93.51-60.37-170.81-60.92-98.4-5.39-181.58,53.2-180.25,52.43,10-4.94,49.55-31.61,110.37-45.14,60.1-14.23,142.68-6.18,208.79,33a260,260,0,0,1,31,21.29l-16.32,10.68-5.92,3.86-.75.49-.35.25c6.5,18.28-14.35-39.42,13.3,37.6-35.64,34.76-66.36,45.43-65.95,45.67-72.4,32.39-136.83,19.81-136,21.29C233.09,287.82,195,264,175.11,254c-19.81-11.42-22.34-13.78-22.47-13.62l-6.58,5.74-1,10.24-5.24,10.8c-9.14,11.54,1,8.15,1,8.11C251.76,342,382.65,351.11,471.59,297.69a268.53,268.53,0,0,0,57.35-45.3c6.36-6.39,12.11-13.15,17.67-19.88l11.49-1.13,3.22-.33,1.6-.14.81-.08.39-.05Zm-18-19.48-7,9.13-.2.24q-6.87.84-13.61,1.63l-.88.11,11.48-7.83,10.46-7.11,1.08,1.08.49.46Zm3.74-4.81-.11.14-1.63,2.1c.1-.85.2-1.74.31-2.67l.9-.62C544.18,196.59,546.65,200.91,542.93,194.52Z"/><path class="cls-1" d="M178.57,158l-.11.06Z"/><path class="cls-1" d="M232.28,114.52c2.69-.46,7-2.26,14-4.64-7.5,1.53-12.94,2.83-14.23,3.53C232.05,113.41,224,117.11,232.28,114.52Z"/><path class="cls-1" d="M31.94,287.65l-.06,0,0,0c-.95-1-.24-.25,1.48,1.68l.12-.07Z"/><path class="cls-1" d="M33.5,289.3,32,287.62h0l1.51,1.68Z"/><path class="cls-1" d="M31.94,287.65l0,0C29.58,285,26.55,281.6,31.94,287.65Z"/><path class="cls-1" d="M53.72,312.24l-.24.35c2.76,3.08,4.23,4.71,3.13,3.47l0-.07.09-.09.13-.19-3.12-3.48Z"/><path class="cls-1" d="M138,173.45l2.46-8.59,5.2-10.61c7.59-12.6,1.19-6.22,1.19-6.22-23.58-9-45.89-18.13-66.89-27.2l-6.91-3c-1.58-3.26-3.14-6.32-4.62-9.08l-.65-1.23-.32-.62,0-.06v0c13.88-12.44,5.43-4.87-6.39,5.72l-4.1-1.84-3.73-1.69-1.86-.84c2.83-2.64-25.15,22.6-13.28,12l.06.11.13.22.28.45.5.87q2,3.48,4,6.9l-8.07,7.24h0l.15.07.32.17,2.42,1.19,4.61,2.26c3,1.39,5.76,2.69,8.31,3.84l.33.15c.91,1.81,1.8,3.61,2.65,5.43,17.47,35.75,21,72.29,14.11,100.41a138.79,138.79,0,0,1-7.2,21.52c-7,3.87-14.33,7.93-21.86,12.12l-5.3,3-1.32.74-.35.17-.15.11-.11,0,.49.55.73-.4,1.69-.91,3.42-1.86,13.76-7.51,8.34-4.5c-.62,1.39-1.26,2.74-1.91,4.07-4.93,2.56-9.92,5.15-14.89,7.75l-6.68,3.49-3,1.55c.76.85.58.66,0,0l-.05,0,3.08,3.45,5.54-3.15,12.86-7.22c-.49.87-1,1.74-1.48,2.58a64.69,64.69,0,0,1-5.31,8.39l-3.74,1.89-3.87,2c.81.92,1.68,1.89,2.6,2.92l-.07.11-2.66-3-.39.2,2.79,3.11-.54.72-3.06-3.42-.91.47-.1,0c-4.91-5.48-1-1.05,3.39,3.83l-.79,1.07c2.47,3.09,3.7,3.51,4.51,3.09,2.21,2.48,3.77,4.21,3.1,3.44l0-.06.13-.16.28-.36.25-.31-3-3.32c.18-.24.36-.49.55-.7l3,3.31.26-.35L47,304.66l.11-.07L50,307.82l.48-.62,2.15-2.82c.9-1.23,1.83-2.42,2.75-3.61q5.61-2.83,9.08-4.5a116.43,116.43,0,0,1-7.36,11.2l-2.22,3.18-1,1.47q1.48,1.68,3.11,3.48l.08-.13.63-.8L58.87,313l9.46-12.88q2.72-4.47,5.2-8.75c1-.62,2-1.21,2.92-1.78A141.6,141.6,0,0,1,63.9,309.7l-5,6.89-.3.44-.16.21,0,0,.48.54.52-.7,2-2.83,8.07-11.44c2.61-4.53,5.33-9.06,7.83-13.73C90,281.39,97.57,277.06,102,274.73c-5.83,1.87-15.51,5.78-21.62,8.3a1,1,0,0,0,.07-.15l5-2.18,17.3-9.94L91.1,275.52c5.75-4.26,29.83-15.72,29.83-15.72-5.2,1-19.72,7.48-37.54,16.08q2.39-5.76,4.24-11.48c20.07-10.93,34.91-18.8,34.91-18.8-3.52.56-16.67,6.7-33.79,15.25.47-1.55.92-3.09,1.33-4.63,19.86-10.65,34.21-18.28,34.21-18.28-4,1.12-16.44,7.4-33.8,16.69,9.51-36.85,4.46-70.95-1.61-93.77,39.41,19,44.14,19.66,44.14,19.66ZM72.3,281.29c-2,1-4.11,2-6.19,3.06A108.15,108.15,0,0,0,72,273l4.45-2.44C75.29,273.88,73.93,277.49,72.3,281.29Zm1.72-13c.66-1.55,1.27-3,1.81-4.42l3-1.61c-.33,1.32-.7,2.7-1.13,4.16Zm5.69,15-2.2.92a.25.25,0,0,0,0-.07l2.22-1Zm-.52-22.58-1.1.6-1.62.88c2.83-7.51,3.94-12.32,4.06-12.26C80.77,251.71,80.39,255.53,79.19,260.72Zm3.7,15.4-2,.94c.3-.69.61-1.39.88-2.07,1.48-3.4,2.74-6.59,3.81-9.5l1.46-.8C86,268.14,84.59,272,82.89,276.12Zm7.88-27.59a31.93,31.93,0,0,1-1,6.48l-.82.43C90.26,251.07,90.78,248.51,90.77,248.53Zm-1.35,8q-.51,2.08-1.23,4.56l-1.23.61c.58-1.69,1.08-3.25,1.52-4.67Z"/><path class="cls-1" d="M106.67,273.69s4.43-3.79-4.7,1C104.33,274,106.06,273.55,106.67,273.69Z"/><path class="cls-1" d="M40.39,297.32l.13-.07-4-4.47-.12.07Z"/><path class="cls-1" d="M53.81,312.12,50,307.82l-.08.1,3.85,4.31Z"/><path class="cls-1" d="M49.37,308.59l-.3.39L53,313.34l.07-.1.13-.2.32-.45-3.86-4.32Z"/><path class="cls-1" d="M56.85,315.71c7.46,8.33,11.3,12.61,1.5,1.64l.06-.08c-.51-.56-1-1.12-1.49-1.67Z"/><path class="cls-1" d="M33.32,289.4l-.16.08-.21.11c-9.5-10.6-4.67-5.19,3.07,3.47l.38-.21Z"/><path class="cls-1" d="M36,293.06l-.3.17-.41.23,0,0c6.48,7.25-9.55-10.65,3.92,4.44l.81-.41Z"/><path class="cls-1" d="M440.79,176.83l-.06-.07S440.73,176.82,440.79,176.83Z"/><path class="cls-1" d="M441,167.17a1.24,1.24,0,0,1-.8-.52C440,166.45,440.32,167.44,441,167.17Z"/><path class="cls-1" d="M440.13,180.39l0-.07S440.09,180.37,440.13,180.39Z"/><path class="cls-1" d="M440.13,180.39c2.13,5,28.58-11.68,12.91-32.36-6.79-8.88-20.49-9.24-27.19-4.69-7.39,4.14-8.72,10.06-9.06,9.72-4.47,11.69,3.22,18.87,3,18.26,12,11.31,16.44,6.78,17.05,6.39l.23-4.78-.07-5.16.31-5.13c-1.73.83-4.39-.19-4-2.67-.43-3.94,4.86-6.21,7.76-4.33,6.07,4.33,1.81,9,1.78,8.73-.72,1.92-1.33,2.63-1.78,2.8a6.77,6.77,0,0,0,3.55-.7l-.9.49c-.5.61-.81,1.35-1.58,1.66l1.8-.32c-.14,1.18-3.46,1.81-3.8,1.75,1.07,1.53,8.81-.27,9.89-8,1.72-7.64-5.74-13.4-5.65-13,2.2-1.62,11.62,6.76,8.64,16.56-2.28,9.17-11.33,11.42-12.17,11.25,1.41,1.95,13.58-1.94,15.17-13.75,2.3-11.43-8.66-19.36-9.63-19.67,2-.6,14.48,10.1,10.32,22.86C453.56,178.57,441,180.66,440.13,180.39Z"/><path class="cls-1" d="M436.8,177.71V178C436.9,177.69,436.91,177.64,436.8,177.71Z"/><path class="cls-1" d="M437.8,157.27c.05,0,.15-5.14-.41,3.52l-.12,1.85C438.61,162,439.4,160.27,437.8,157.27Z"/><path class="cls-1" d="M149.24,403.42c-1.18-.72-2-1.39-2-4.36,0-2.69-.22-9.7-.51-11.87-.59-4.81-4.07-6.12-5.89-7.35,3.55-2.12,5.89-3.78,7.21-8.37s.13-8.37-.52-10.7c-1.6-5.75-6.91-8.45-12.25-8.45H105.78v53.07h10.91v-21h12.82c3.78,0,6.55,1.75,6.55,5.32,0,3.87-.15,8.08,0,10.71a12.14,12.14,0,0,0,1.45,4.94h11.73Zm-17.62-28.09H116.69v-13.9h14.79c4.87,0,6.62,2.17,6.62,6A7.05,7.05,0,0,1,131.62,375.33Z"/><path class="cls-1" d="M154.19,394.69a17.12,17.12,0,0,0,7.05,9.39,19.5,19.5,0,0,0,10.28,3c6.9,0,16.23-5.16,18-12.82H179.44c-.5,2-3,3.87-5.88,4.43a8.49,8.49,0,0,1-8.61-3.47,8.73,8.73,0,0,1-1.23-6.34h26.2c.23-4.72.23-10.05-3.34-15.81-2.48-3.92-7.29-7.78-15-7.78-4.53,0-15.21.73-17.77,16.16a39.85,39.85,0,0,0-.37,8.45A28.68,28.68,0,0,0,154.19,394.69Zm18.05-20.89c6.12.3,7.14,5.23,7.14,8.22H163.72C163.63,378.32,166,373.52,172.24,373.8Z"/><path class="cls-1" d="M212.26,374.15c3.13.15,6,.23,7.51,6.49h9.76c0-3.21-2.48-10.41-6.92-13.19-2.26-1.45-6.48-2.39-10.41-2.17-6.55.45-11.86.58-16.51,11.14-2.19,5-1.86,11.79-1.4,15.28.73,5.75,5.09,15.81,17.41,15.36,6.4-.21,8.59-1.09,11.56-3.56,1.46-1.25,6.33-6.49,6.27-11.88h-9.76c-1.6,6.7-4.81,7.07-7.35,7-3.19-.15-5.9-.95-7.5-7.14a24.89,24.89,0,0,1,.31-11.5C206.3,376.19,208.79,373.94,212.26,374.15Z"/><path class="cls-1" d="M258.21,375.7V365.27a9.49,9.49,0,0,0-7.27,2.13c-3.57,2.54-4.09,3.85-4.74,6.18h-.14v-7.64H235.87V405.4h10.19V383.19C247.28,374.6,253.84,375.18,258.21,375.7Z"/><path class="cls-1" d="M261.26,394.69a17,17,0,0,0,7.08,9.39,19.34,19.34,0,0,0,10.25,3c6.91,0,16.24-5.16,18-12.82h-10c-.51,2-3,3.87-5.9,4.43a8.45,8.45,0,0,1-8.59-3.47c-1.44-2.06-1.44-4.23-1.25-6.34H297c.23-4.72.23-10.05-3.35-15.81-2.46-3.92-7.28-7.78-15-7.78-4.52,0-15.21.73-17.77,16.16a39.13,39.13,0,0,0-.36,8.45A30.24,30.24,0,0,0,261.26,394.69Zm18.06-20.89c6.13.3,7.13,5.23,7.13,8.22H270.79C270.73,378.32,273.06,373.52,279.32,373.8Z"/><path class="cls-1" d="M334.5,399.34V377.8c0-6.26-3.14-9.46-7.07-11.06a26.6,26.6,0,0,0-9.32-1.46c-5.37,0-16.14,1.16-16.31,13.76h9.63c.15-2.84.88-6.4,6.68-6.4,4.66,0,6.63,1.08,6.7,3.56a4.31,4.31,0,0,1-2.54,4.45A42,42,0,0,1,312,382.47c-9,1.52-11.21,6.89-11.43,12.45-.3,7.63,3.64,12.14,11.65,12.14,6,0,9.1-2.26,12.66-5.61A6.35,6.35,0,0,0,326,405.4h10.76V404A6.53,6.53,0,0,1,334.5,399.34Zm-9.69-10.25c0,4.37-1.07,8.59-7.12,9.53-4.38.72-6.2-.94-6.78-3.29-.87-3.19,1.32-5.8,4.45-6.38,2.62-.52,6.54-.37,9.45-2.12Z"/><path class="cls-1" d="M355.24,407.06a18.81,18.81,0,0,0,4.9-.94V399.2l-3.88-.06c-1.39,0-1.67-1.46-1.67-3.43V373.5h5.66v-6.77h-5.66V356h-10.2v10.69h-5v6.77h5v25.7a8.4,8.4,0,0,0,6.06,7.36A14.91,14.91,0,0,0,355.24,407.06Z"/><rect class="cls-1" x="366.73" y="352.31" width="10.21" height="9.09"/><rect class="cls-1" x="366.73" y="365.94" width="10.21" height="39.46"/><path class="cls-1" d="M417,370.08c-3.49-3.19-8.52-4.79-13.62-4.79s-10.11,1.6-13.6,4.79c-3.94,3.57-5.83,9.68-5.83,16.09s1.89,12.52,5.83,16.1c3.49,3.2,8.52,4.8,13.6,4.8s10.13-1.6,13.62-4.8c3.93-3.58,5.82-9.7,5.82-16.1S420.9,373.65,417,370.08Zm-6.35,23.81a8.16,8.16,0,0,1-14.54,0,16.71,16.71,0,0,1,0-15.44,8.18,8.18,0,0,1,14.54,0,16.56,16.56,0,0,1,0,15.44Z"/><path class="cls-1" d="M449.78,365.27a10.93,10.93,0,0,0-9.65,6.64H440v-6H429.78V405.4H440V380.93c0-3.19,1.24-6.62,7.42-6.62,6.93,0,7.36,4.13,7.36,7.63V405.4h10.19V379C464.94,369.06,458.83,365.27,449.78,365.27Z"/><path class="cls-1" d="M504.76,399.34V377.8c0-6.26-3.14-9.46-7.07-11.06a26.69,26.69,0,0,0-9.32-1.46c-5.36,0-16.14,1.16-16.3,13.76h9.61c.16-2.84.89-6.4,6.69-6.4,4.68,0,6.64,1.08,6.7,3.56a4.31,4.31,0,0,1-2.54,4.45,41.93,41.93,0,0,1-10.26,1.82c-9,1.52-11.21,6.89-11.43,12.45-.3,7.63,3.64,12.14,11.67,12.14,5.94,0,9.09-2.26,12.64-5.61a6.41,6.41,0,0,0,1.09,3.95H507V404A6.51,6.51,0,0,1,504.76,399.34Zm-9.69-10.25c0,4.37-1.07,8.59-7.12,9.53-4.38.72-6.19-.94-6.78-3.29-.87-3.19,1.34-5.8,4.45-6.38,2.62-.52,6.54-.37,9.45-2.12Z"/><rect class="cls-1" x="513.47" y="352.33" width="10.21" height="53.06"/><polygon class="cls-1" points="83.5 485.46 94.42 485.46 94.42 462.68 117.65 462.68 117.65 453.59 94.42 453.59 94.42 441.49 120.77 441.49 120.77 432.4 83.5 432.4 83.5 485.46"/><rect class="cls-1" x="126.73" y="432.41" width="10.21" height="9.09"/><rect class="cls-1" x="126.73" y="446.01" width="10.21" height="39.46"/><path class="cls-1" d="M171.88,463.62l-14.71-4c-3.49-.95-2.64-4.36-.79-5.38a10,10,0,0,1,8.22-.52c3.42,1.1,3.7,2.56,3.79,5h9.81c0-2.91-.27-6.92-5.8-10.48a21.45,21.45,0,0,0-12.25-2.91c-4.23.14-8.14,1.31-10.41,3.06a12.36,12.36,0,0,0-4.8,10.33c.09,3.56,1.24,7.57,8.44,9.61L166,472c4,1.17,3.89,8.29-3.62,7.49-4.45-.5-7.49-1-8.88-5.6h-10c.08,2.54.95,8.3,8.65,11.71a25.11,25.11,0,0,0,8.68,1.54,28.22,28.22,0,0,0,9.87-1.31c6.72-2.41,8.53-8.73,8.53-12.66A10.15,10.15,0,0,0,171.88,463.62Z"/><path class="cls-1" d="M205.78,445.35a11.58,11.58,0,0,0-9.65,5.9H196V432.4H185.78v53.06H196V461c0-3.2,1.22-6.63,7.4-6.63,6.92,0,7.36,4.15,7.36,7.65v23.44h10.19V459C220.94,449.14,214.82,445.35,205.78,445.35Z"/><rect class="cls-1" x="229.74" y="446.01" width="10.21" height="39.46"/><rect class="cls-1" x="229.74" y="432.41" width="10.21" height="9.09"/><path class="cls-1" d="M269.05,445.36a11,11,0,0,0-9.68,6.62h-.13v-6H249v39.46h10.2V461c0-3.19,1.22-6.62,7.42-6.62,6.91,0,7.35,4.15,7.35,7.64v23.45h10.18V459C284.19,449.13,278.08,445.36,269.05,445.36Z"/><path class="cls-1" d="M318,452c-2.84-3.34-4.23-6.24-10.5-6.61-5.46-.35-9.09,2.77-11,4.74-7.36,7.64-8,25-.46,32.68,3.23,3.28,5.83,4.36,11.37,4.36s7.56-2.39,10.63-5.74v5.54c0,4.36-4.38,7.55-8.89,7.55s-7.12-2.17-7.12-4.43H291.26c0,6.34,5.74,11.35,16.52,11.35,7.42,0,10.93-1.37,13.56-3.06a14.33,14.33,0,0,0,6.18-11.85V446H318Zm-1.76,22.51a8.18,8.18,0,0,1-14.56,0,16.79,16.79,0,0,1,0-15.44,8.21,8.21,0,0,1,14.56,0,16.71,16.71,0,0,1,0,15.44Z"/><polygon class="cls-1" points="352.4 441.49 368.48 441.49 368.48 485.46 379.4 485.46 379.4 441.49 394.92 441.49 394.92 432.4 352.4 432.4 352.4 441.49"/><path class="cls-1" d="M414.79,447.46c-3.57,2.56-4.07,3.87-4.74,6.19h-.12V446H399.72v39.46h10.21v-22.2c1.22-8.59,7.76-8,12.15-7.5V445.36A9.47,9.47,0,0,0,414.79,447.46Z"/><path class="cls-1" d="M452.35,471.49c-.22,2.48-1.24,6.18-7.42,6.62-7.51.52-7.36-4.14-7.36-7.64V446H427.38v27.45c0,13,9.62,13.61,15.22,13.69,3.56-.52,6.78-1.69,9.59-6.57h.16v4.88h10.19V446H452.35Z"/><path class="cls-1" d="M497,463.62l-14.69-4c-3.51-.95-2.63-4.36-.81-5.38a10,10,0,0,1,8.22-.52c3.41,1.1,3.72,2.56,3.79,5h9.81c0-2.91-.28-6.92-5.82-10.48-3.48-2.27-8-3.06-12.23-2.91s-8.15,1.31-10.39,3.06a12.28,12.28,0,0,0-4.8,10.33c.07,3.56,1.23,7.57,8.43,9.61L491.14,472c3.93,1.17,3.87,8.29-3.64,7.49-4.44-.5-7.48-1-8.87-5.6H468.58c.08,2.54,1,8.3,8.66,11.71a25,25,0,0,0,8.67,1.54,28.43,28.43,0,0,0,9.9-1.31c6.69-2.41,8.52-8.73,8.52-12.66A10.17,10.17,0,0,0,497,463.62Z"/><path class="cls-1" d="M522.45,436.12H512.26v10.69h-5v6.77h5v25.7a8.37,8.37,0,0,0,6,7.35,14.76,14.76,0,0,0,4.82.51,18.74,18.74,0,0,0,4.89-.94v-6.92l-3.88-.07c-1.4,0-1.67-1.45-1.67-3.43v-22.2h5.66v-6.77h-5.66Z"/><path class="cls-1" d="M560.24,463.62l-14.71-4c-3.49-.95-2.64-4.36-.81-5.38a10.05,10.05,0,0,1,8.24-.52c3.41,1.1,3.7,2.56,3.77,5h9.83c0-2.91-.29-6.92-5.82-10.48-3.49-2.27-8-3.06-12.25-2.91s-8.15,1.31-10.39,3.06a12.31,12.31,0,0,0-4.8,10.33c.07,3.56,1.24,7.57,8.44,9.61L554.39,472c4,1.17,3.88,8.29-3.62,7.49-4.46-.5-7.51-1-8.88-5.6H531.83c.08,2.54,1,8.3,8.67,11.71a25,25,0,0,0,8.66,1.54,28.45,28.45,0,0,0,9.91-1.31c6.7-2.41,8.51-8.73,8.51-12.66A10.15,10.15,0,0,0,560.24,463.62Z"/></svg>